<svg xmlns="http://www.w3.org/2000/svg" width="44" height="44" viewBox="0 0 44 44">
    <g fill="none" fill-rule="evenodd" opacity=".8">
        <path d="M0 0h44v44H0z"/>
        <circle cx="22" cy="22" r="21.5" stroke="#029EE4" stroke-opacity=".172"/>
        <path fill="#029EE4" fill-rule="nonzero" d="M18.485 20.317h8.149C27.2 24.39 25.489 30.5 18.485 30.5 13.8 30.5 10 26.694 10 22c0-4.695 3.8-8.5 8.485-8.5 2.199 0 4.202.837 5.71 2.212-1.776 1.68-1.718 1.78-2.416 2.48-.872-.723-1.822-1.242-3.294-1.242-2.784 0-4.956 2.261-4.956 5.05 0 2.789 2.172 5.05 4.956 5.05 2.75 0 3.868-1.189 4.587-3.371-1.327 0-4.587.004-4.587.004v-3.366zm15.29.168h2.94v2.104h-2.94v3.03h-2.1v-3.03H28.65v-2.104h3.025V17.54h2.1v2.945z"/>
    </g>
</svg>
