<svg xmlns="http://www.w3.org/2000/svg" width="20" height="16" viewBox="0 0 20 16"><path fill="#029EE4" fill-rule="evenodd" d="M.527 2.04a1.017 1.017 0 0 1-.175-.284.917.917 0 0 1-.059-.342c0-.117.02-.228.059-.332A.76.76 0 0 1 .8.632a.938.938 0 0 1 .332-.058h17.832c.117 0 .228.02.332.059a.76.76 0 0 1 .45.449c.038.104.058.215.058.332 0 .13-.02.244-.059.342-.039.098-.098.192-.176.283a.76.76 0 0 1-.273.176.938.938 0 0 1-.332.058H1.133A.938.938 0 0 1 .8 2.215a.76.76 0 0 1-.274-.176zM19.57 7.604a.76.76 0 0 1 .176.274c.04.104.059.215.059.332 0 .117-.02.228-.059.332a.76.76 0 0 1-.45.45.938.938 0 0 1-.331.058H1.133A.938.938 0 0 1 .8 8.992a.76.76 0 0 1-.45-.449.938.938 0 0 1-.058-.332c0-.117.02-.228.059-.332a.76.76 0 0 1 .449-.45.938.938 0 0 1 .332-.058h17.832c.117 0 .228.02.332.059a.76.76 0 0 1 .273.175zm0 6.778a.76.76 0 0 1 .176.273c.04.104.059.215.059.332 0 .13-.02.244-.059.342-.039.098-.098.192-.176.283a.76.76 0 0 1-.273.176.938.938 0 0 1-.332.059H1.133a.938.938 0 0 1-.332-.059.76.76 0 0 1-.274-.176 1.017 1.017 0 0 1-.175-.283.917.917 0 0 1-.059-.342c0-.117.02-.228.059-.332a.76.76 0 0 1 .449-.449.938.938 0 0 1 .332-.059h17.832c.117 0 .228.02.332.059a.76.76 0 0 1 .273.176z"/></svg>
