<svg xmlns="http://www.w3.org/2000/svg" xmlns:xlink="http://www.w3.org/1999/xlink" width="121" height="17" viewBox="0 0 121 17">
    <defs>
        <path id="a" d="M0 8.544c0-3.978 2.46-7.4 7.136-7.4 1.77 0 3.172.536 4.656 1.836.548.514.61 1.422.06 1.998-.548.496-1.382.432-1.87-.062-.834-.886-1.686-1.134-2.846-1.134-3.131 0-4.634 2.248-4.634 4.762 0 2.556 1.483 4.906 4.634 4.906 1.16 0 2.237-.474 3.172-1.32.63-.494 1.503-.248 1.87.248.326.452.488 1.216-.223 1.936-1.424 1.34-3.13 1.608-4.82 1.608-4.92 0-7.135-3.4-7.135-7.378zm17.374 5.894c0 1.794-2.704 1.856-2.704.042V2.772c0-.72.55-1.256 1.22-1.256h5.408c5.163 0 6.22 7.008 1.912 8.758l2.703 3.34c1.057 1.588-1.058 3.112-2.277 1.546l-3.07-4.452h-3.192v3.73zm9.899-10.944c-.977-1.32 1.22-2.988 2.277-1.382l3.559 5.38 3.598-5.38c1.077-1.504 3.334 0 2.277 1.382l-4.595 6.74V14.5c0 1.814-2.683 1.772-2.683-.02v-4.246l-4.433-6.74zm13.717-.741c0-.682.529-1.424 1.381-1.424h4.697c2.644 0 5.021 1.794 5.021 5.236 0 3.256-2.377 5.07-5.02 5.07h-3.396v2.72c0 .908-.57 1.424-1.302 1.424-.67 0-1.38-.516-1.38-1.424V2.753zM57.951 4.09h-3.557c-1.77 0-1.77-2.638 0-2.638h9.616c1.809 0 1.809 2.638 0 2.638h-3.376V14.5c0 1.794-2.683 1.834-2.683 0V4.091zm15.757 11.892c-3.762.166-7.666-2.37-7.666-7.42 0-5.07 3.904-7.564 7.666-7.564 3.557.186 7.278 2.68 7.278 7.564 0 4.886-3.721 7.42-7.278 7.42zM17.374 8.338h3.924c2.644 0 2.806-4.328 0-4.328h-3.924v4.328zm56.109-4.659c-2.277 0-4.756 1.628-4.756 4.884 0 3.236 2.48 4.886 4.756 4.886 2.338 0 4.84-1.65 4.84-4.886 0-3.256-2.502-4.884-4.84-4.884zm-29.81.248v5.132h3.395c1.362 0 2.44-1.216 2.44-2.494 0-1.442-1.078-2.638-2.44-2.638h-3.395zm39.785-1.174c0-.682.529-1.424 1.381-1.424h4.698c2.643 0 5.02 1.794 5.02 5.236 0 3.256-2.377 5.07-5.02 5.07H86.14v2.72c0 .908-.57 1.424-1.302 1.424-.67 0-1.38-.516-1.38-1.424V2.753zm11.795 13.025c-.651-.372-1.057-1.114-.651-1.98l5.836-11.562c.548-1.092 2.012-1.134 2.52 0l5.734 11.562c.832 1.608-1.628 2.886-2.36 1.278l-.893-1.814h-7.503l-.874 1.814c-.325.702-1.077.846-1.809.702zm12.88-12.284c-.976-1.32 1.22-2.988 2.277-1.382l3.56 5.38 3.598-5.38c1.077-1.504 3.334 0 2.276 1.382l-4.594 6.74V14.5c0 1.814-2.684 1.772-2.684-.02v-4.246l-4.432-6.74zm-21.992.433v5.132h3.396c1.36 0 2.438-1.216 2.438-2.494 0-1.442-1.077-2.638-2.438-2.638H86.14zm17.854 6.615l-2.297-5.09-2.501 5.09h4.798z"/>
    </defs>
    <g fill="none" fill-rule="evenodd">
        <mask id="b" fill="#fff">
            <use xlink:href="#a"/>
        </mask>
        <use fill="#FEFEFE" xlink:href="#a"/>
        <g fill="#FFF" mask="url(#b)">
            <path d="M-2-32h123v77H-2z"/>
        </g>
    </g>
</svg>
