<svg xmlns="http://www.w3.org/2000/svg" width="44" height="44" viewBox="0 0 44 44">
    <g fill="none" fill-rule="evenodd" opacity=".8">
        <path d="M0 0h44v44H0z"/>
        <circle cx="22" cy="22" r="21.5" stroke="#029EE4" stroke-opacity=".172"/>
        <path fill="#029EE4" fill-rule="nonzero" d="M32.933 16.407a.08.08 0 0 1 .02.106l-6.67 10.837-4.794-7.791 3.82-6.209a.76.76 0 0 1 .967-.275l6.636 3.318.008.004c.005.002.009.007.013.01zm-13.549 1.738l6.283 10.208-6.283-3.14v-7.068zm7.226 10.68L33 18.442v12.443c0 .627-.546.862-1.218.526l-5.172-2.586zm-8.316-12.408c.024.012.04.037.04.064v14.404c0 .46-.25.735-.604.735a.928.928 0 0 1-.412-.108l-5.709-2.854c-.335-.168-.609-.611-.609-.986V13.678c0-.368.2-.588.483-.588.1 0 .212.028.33.086l6.48 3.241h.001z"/>
    </g>
</svg>
