<svg xmlns="http://www.w3.org/2000/svg" width="22" height="22" viewBox="0 0 22 22">
    <path fill="#999" fill-rule="evenodd" d="M22 20.682L20.682 22l-6.474-6.474c-1.566 1.26-3.399 1.89-5.5 1.89-2.406 0-4.459-.85-6.159-2.549C.85 13.167 0 11.115 0 8.708 0 6.302.85 4.25 2.55 2.55 4.25.85 6.301 0 8.707 0c2.407 0 4.46.85 6.16 2.55 1.699 1.7 2.549 3.752 2.549 6.158 0 2.063-.63 3.877-1.891 5.443L22 20.682zM3.208 14.266c1.49 1.49 3.323 2.234 5.5 2.234 2.14 0 3.973-.764 5.5-2.292 1.528-1.527 2.292-3.36 2.292-5.5 0-2.139-.764-3.972-2.292-5.5-1.527-1.527-3.36-2.291-5.5-2.291-2.139 0-3.972.764-5.5 2.291C1.681 4.736.917 6.57.917 8.708c0 2.177.764 4.03 2.291 5.558z"/>
</svg>
